<svg xmlns="http://www.w3.org/2000/svg" width="205.68" height="202.733" viewBox="0 0 205.68 202.733"><path d="M545.57 511.391h58.907l9.386-26.801h1.875l9.375 26.801h57.364v-70.602h-37.512v37.281h-1.875l-14.336-37.281h-29.461l-14.336 37.281h-1.875v-37.281H545.57zM770.289 469.801v12.469h-33.32v-12.469zm-76.785 6.289c0 24.832 19.637 36.851 60.34 36.851 40.488 0 60.125-12.019 60.125-36.851 0-25.262-19.52-37.512-60.125-37.512-40.703 0-60.34 12.25-60.34 37.512M824.996 511.391h99.18v-22.063h-59.914v-4.738h57.59v-16.219h-57.59v-5.519h59.914v-22.063h-99.18zM940.707 511.391h39.719v-41.813h44.674v-28.789h-84.393zM1014.07 1111.74V544.012h81.46v567.728zM463.699 979.316V544.012h81.469l40.734 132.422v435.306h-81.468zM618.93 1111.74V979.316l94.679-435.304h71.465v132.422l-94.676 435.306zM818.102 979.316V544.012h81.468l81.469 132.422v435.306H899.57z" style="fill:#fff;fill-opacity:1;fill-rule:nonzero;stroke:none" transform="matrix(.13333 0 0 -.13333 0 202.733)"/></svg>