<?xml version="1.0" encoding="UTF-8" standalone="no"?>
<!-- Created with Inkscape (http://www.inkscape.org/) -->

<svg
   version="1.1"
   id="svg1"
   width="205.67999"
   height="202.73334"
   viewBox="0 0 205.67999 202.73334"
   sodipodi:docname="Moel_Wortbildmarke_Weiß-01-02.svg"
   inkscape:version="1.4.3 (0d15f75, 2025-12-25)"
   xmlns:inkscape="http://www.inkscape.org/namespaces/inkscape"
   xmlns:sodipodi="http://sodipodi.sourceforge.net/DTD/sodipodi-0.dtd"
   xmlns="http://www.w3.org/2000/svg"
   xmlns:svg="http://www.w3.org/2000/svg">
  <defs
     id="defs1" />
  <sodipodi:namedview
     id="namedview1"
     pagecolor="#ffffff"
     bordercolor="#000000"
     borderopacity="0.25"
     inkscape:showpageshadow="2"
     inkscape:pageopacity="0.0"
     inkscape:pagecheckerboard="0"
     inkscape:deskcolor="#d1d1d1"
     inkscape:zoom="3.9805985"
     inkscape:cx="102.74837"
     inkscape:cy="101.36667"
     inkscape:window-width="2560"
     inkscape:window-height="1009"
     inkscape:window-x="1912"
     inkscape:window-y="-8"
     inkscape:window-maximized="1"
     inkscape:current-layer="g1">
    <inkscape:page
       x="0"
       y="0"
       inkscape:label="1"
       id="page1"
       width="205.67999"
       height="202.73334"
       margin="0"
       bleed="0" />
  </sodipodi:namedview>
  <g
     id="g1"
     inkscape:groupmode="layer"
     inkscape:label="1">
    <g
       id="group-R5">
      <path
         id="path2"
         d="m 545.57,511.391 h 58.907 l 9.386,-26.801 h 1.875 l 9.375,26.801 h 57.364 v -70.602 h -37.512 v 37.281 h -1.875 l -14.336,-37.281 h -29.461 l -14.336,37.281 h -1.875 V 440.789 H 545.57 v 70.602"
         style="fill:#ffffff;fill-opacity:1;fill-rule:nonzero;stroke:none"
         transform="matrix(0.13333333,0,0,-0.13333333,0,202.73333)" />
      <path
         id="path3"
         d="m 770.289,469.801 v 12.469 h -33.32 v -12.469 z m -76.785,6.289 c 0,24.832 19.637,36.851 60.34,36.851 40.488,0 60.125,-12.019 60.125,-36.851 0,-25.262 -19.52,-37.512 -60.125,-37.512 -40.703,0 -60.34,12.25 -60.34,37.512"
         style="fill:#ffffff;fill-opacity:1;fill-rule:nonzero;stroke:none"
         transform="matrix(0.13333333,0,0,-0.13333333,0,202.73333)" />
      <path
         id="path4"
         d="m 824.996,511.391 h 99.18 v -22.063 h -59.914 v -4.738 h 57.59 v -16.219 h -57.59 v -5.519 h 59.914 v -22.063 h -99.18 v 70.602"
         style="fill:#ffffff;fill-opacity:1;fill-rule:nonzero;stroke:none"
         transform="matrix(0.13333333,0,0,-0.13333333,0,202.73333)" />
      <path
         id="path5"
         d="m 940.707,511.391 h 39.719 v -41.813 h 44.674 v -28.789 h -84.393 v 70.602"
         style="fill:#ffffff;fill-opacity:1;fill-rule:nonzero;stroke:none"
         transform="matrix(0.13333333,0,0,-0.13333333,0,202.73333)" />
      <path
         id="path6"
         d="M 1014.07,1111.74 V 544.012 h 81.46 v 567.728 h -81.46"
         style="fill:#ffffff;fill-opacity:1;fill-rule:nonzero;stroke:none"
         transform="matrix(0.13333333,0,0,-0.13333333,0,202.73333)" />
      <path
         id="path7"
         d="M 463.699,979.316 V 544.012 h 81.469 l 40.734,132.422 V 1111.74 H 504.434 L 463.699,979.316"
         style="fill:#ffffff;fill-opacity:1;fill-rule:nonzero;stroke:none"
         transform="matrix(0.13333333,0,0,-0.13333333,0,202.73333)" />
      <path
         id="path8"
         d="M 618.93,1111.74 V 979.316 l 94.679,-435.304 h 71.465 V 676.434 L 690.398,1111.74 H 618.93"
         style="fill:#ffffff;fill-opacity:1;fill-rule:nonzero;stroke:none"
         transform="matrix(0.13333333,0,0,-0.13333333,0,202.73333)" />
      <path
         id="path9"
         d="M 818.102,979.316 V 544.012 h 81.468 l 81.469,132.422 V 1111.74 H 899.57 L 818.102,979.316"
         style="fill:#ffffff;fill-opacity:1;fill-rule:nonzero;stroke:none"
         transform="matrix(0.13333333,0,0,-0.13333333,0,202.73333)" />
    </g>
  </g>
</svg>
